<?xml version="1.0" encoding="UTF-8"?>
<svg xmlns="http://www.w3.org/2000/svg" xmlns:xlink="http://www.w3.org/1999/xlink" width="17px" height="17px" viewBox="0 0 17 17" version="1.1">
<g id="surface1">
<path style=" stroke:none;fill-rule:nonzero;fill:rgb(39.607844%,65.882355%,26.666668%);fill-opacity:1;" d="M 17 8.5 C 17 3.804688 13.195312 0 8.5 0 C 3.804688 0 0 3.804688 0 8.5 C 0 13.195312 3.804688 17 8.5 17 C 13.195312 17 17 13.195312 17 8.5 Z M 17 8.5 "/>
<path style=" stroke:none;fill-rule:nonzero;fill:rgb(87.843138%,87.843138%,87.843138%);fill-opacity:1;" d="M 12.816406 4.699219 C 11.742188 3.445312 10.148438 2.648438 8.371094 2.648438 C 5.140625 2.648438 2.519531 5.265625 2.519531 8.5 C 2.519531 10.328125 3.363281 11.964844 4.679688 13.035156 C 5.6875 13.855469 6.96875 14.347656 8.371094 14.347656 C 11.601562 14.347656 14.21875 11.730469 14.21875 8.5 C 14.21875 7.046875 13.691406 5.71875 12.816406 4.699219 Z M 12.816406 4.699219 "/>
<path style=" stroke:none;fill-rule:nonzero;fill:rgb(100%,100%,100%);fill-opacity:1;" d="M 11.066406 11.238281 C 12.902344 9.402344 13.503906 6.839844 12.816406 4.699219 C 11.742188 3.445312 10.148438 2.648438 8.371094 2.648438 C 5.140625 2.648438 2.519531 5.265625 2.519531 8.5 C 2.519531 10.328125 3.363281 11.964844 4.679688 13.035156 C 6.789062 13.648438 9.273438 13.03125 11.066406 11.238281 Z M 11.066406 11.238281 "/>
<path style=" stroke:none;fill-rule:nonzero;fill:rgb(22.745098%,22.745098%,22.352941%);fill-opacity:1;" d="M 5.179688 5.558594 C 5.179688 5.558594 5.960938 4.339844 7.035156 4.050781 C 7.035156 4.050781 7.984375 3.988281 9.035156 4.835938 C 9.035156 4.835938 8.644531 6.796875 8.519531 6.960938 C 8.519531 6.960938 6.230469 7.496094 6.105469 7.558594 C 6.105469 7.558594 5.386719 6.546875 5.179688 5.558594 Z M 5.179688 5.558594 "/>
<path style=" stroke:none;fill-rule:nonzero;fill:rgb(22.745098%,22.745098%,22.352941%);fill-opacity:1;" d="M 11.242188 3.410156 L 11.242188 4.546875 C 11.242188 4.546875 12.539062 5.515625 12.828125 6.382812 L 13.859375 6.464844 C 13.859375 6.464844 13.261719 4.503906 11.242188 3.410156 Z M 11.242188 3.410156 "/>
<path style=" stroke:none;fill-rule:nonzero;fill:rgb(22.745098%,22.745098%,22.352941%);fill-opacity:1;" d="M 10.25 8.816406 L 12.355469 8.550781 C 12.355469 8.550781 12.851562 9.417969 12.851562 10.675781 C 12.851562 10.675781 11.921875 11.933594 11.117188 12.246094 L 9.425781 11.234375 Z M 10.25 8.816406 "/>
<path style=" stroke:none;fill-rule:nonzero;fill:rgb(22.745098%,22.745098%,22.352941%);fill-opacity:1;" d="M 5.28125 9.871094 C 5.28125 9.871094 6.210938 11.171875 6.910156 11.726562 L 6.3125 13.152344 C 6.3125 13.152344 5.054688 13.007812 4.4375 12.492188 C 4.4375 12.492188 3.714844 11.625 3.714844 10.367188 Z M 5.28125 9.871094 "/>
<path style=" stroke:none;fill-rule:nonzero;fill:rgb(22.745098%,22.745098%,22.352941%);fill-opacity:1;" d="M 2.476562 8.34375 L 2.828125 8.34375 C 2.828125 8.34375 2.929688 6.917969 3.570312 6.03125 L 3.570312 5.101562 C 3.570312 5.101562 2.644531 6.199219 2.476562 8.34375 Z M 2.476562 8.34375 "/>
<path style=" stroke:none;fill-rule:nonzero;fill:rgb(22.745098%,22.745098%,22.352941%);fill-opacity:1;" d="M 8.027344 14.339844 L 8.046875 14.203125 C 8.046875 14.203125 9.921875 13.957031 10.5625 13.585938 L 10.820312 13.8125 C 10.820312 13.8125 9.660156 14.4375 8.027344 14.339844 Z M 8.027344 14.339844 "/>
<path style=" stroke:none;fill-rule:nonzero;fill:rgb(22.745098%,22.745098%,22.352941%);fill-opacity:1;" d="M 6.417969 2.957031 L 6.992188 2.976562 L 7.519531 2.707031 C 7.519531 2.707031 6.933594 2.769531 6.417969 2.957031 Z M 6.417969 2.957031 "/>
<path style=" stroke:none;fill-rule:nonzero;fill:rgb(22.745098%,22.745098%,22.352941%);fill-opacity:1;" d="M 8.980469 4.886719 L 8.96875 4.824219 C 9.039062 4.8125 10.667969 4.488281 11.304688 4.507812 L 11.300781 4.570312 C 10.671875 4.550781 9 4.882812 8.980469 4.886719 Z M 8.980469 4.886719 "/>
<path style=" stroke:none;fill-rule:nonzero;fill:rgb(22.745098%,22.745098%,22.352941%);fill-opacity:1;" d="M 12.371094 8.597656 L 12.324219 8.558594 C 12.722656 8.097656 12.808594 6.382812 12.8125 6.363281 L 12.871094 6.367188 C 12.867188 6.4375 12.785156 8.121094 12.371094 8.597656 Z M 12.371094 8.597656 "/>
<path style=" stroke:none;fill-rule:nonzero;fill:rgb(22.745098%,22.745098%,22.352941%);fill-opacity:1;" d="M 13.757812 10.785156 L 12.816406 10.707031 L 12.820312 10.644531 L 13.785156 10.714844 Z M 13.757812 10.785156 "/>
<path style=" stroke:none;fill-rule:nonzero;fill:rgb(22.745098%,22.745098%,22.352941%);fill-opacity:1;" d="M 10.269531 8.894531 L 8.472656 6.945312 L 8.519531 6.902344 L 10.3125 8.851562 Z M 10.269531 8.894531 "/>
<path style=" stroke:none;fill-rule:nonzero;fill:rgb(22.745098%,22.745098%,22.352941%);fill-opacity:1;" d="M 10.566406 13.660156 L 10.523438 13.621094 C 10.699219 13.421875 11.105469 12.203125 11.109375 12.191406 L 11.167969 12.210938 C 11.152344 12.261719 10.753906 13.453125 10.566406 13.660156 Z M 10.566406 13.660156 "/>
<path style=" stroke:none;fill-rule:nonzero;fill:rgb(22.745098%,22.745098%,22.352941%);fill-opacity:1;" d="M 6.828125 11.78125 L 6.820312 11.722656 C 6.84375 11.71875 9.015625 11.421875 9.441406 11.199219 L 9.46875 11.253906 C 9.035156 11.480469 6.917969 11.769531 6.828125 11.78125 Z M 6.828125 11.78125 "/>
<path style=" stroke:none;fill-rule:nonzero;fill:rgb(22.745098%,22.745098%,22.352941%);fill-opacity:1;" d="M 5.300781 9.941406 L 5.242188 9.925781 C 5.265625 9.839844 5.820312 7.839844 6.089844 7.507812 L 6.136719 7.546875 C 5.878906 7.867188 5.308594 9.921875 5.300781 9.941406 Z M 5.300781 9.941406 "/>
<path style=" stroke:none;fill-rule:nonzero;fill:rgb(22.745098%,22.745098%,22.352941%);fill-opacity:1;" d="M 8.085938 14.257812 C 7.058594 13.992188 6.269531 13.144531 6.261719 13.136719 L 6.308594 13.09375 C 6.316406 13.101562 7.089844 13.9375 8.101562 14.199219 Z M 8.085938 14.257812 "/>
<path style=" stroke:none;fill-rule:nonzero;fill:rgb(22.745098%,22.745098%,22.352941%);fill-opacity:1;" d="M 3.71875 10.40625 C 2.730469 9.4375 2.757812 8.308594 2.757812 8.300781 L 2.820312 8.300781 C 2.820312 8.3125 2.792969 9.410156 3.761719 10.359375 Z M 3.71875 10.40625 "/>
<path style=" stroke:none;fill-rule:nonzero;fill:rgb(22.745098%,22.745098%,22.352941%);fill-opacity:1;" d="M 3.535156 6.089844 L 3.496094 6.039062 C 3.503906 6.035156 4.238281 5.488281 5.289062 5.53125 L 5.285156 5.589844 C 4.257812 5.546875 3.542969 6.082031 3.535156 6.089844 Z M 3.535156 6.089844 "/>
<path style=" stroke:none;fill-rule:nonzero;fill:rgb(22.745098%,22.745098%,22.352941%);fill-opacity:1;" d="M 7.011719 4.082031 L 6.964844 2.929688 L 7.027344 2.925781 L 7.074219 4.082031 Z M 7.011719 4.082031 "/>
<path style=" stroke:none;fill-rule:nonzero;fill:rgb(22.745098%,22.745098%,22.352941%);fill-opacity:1;" d="M 4.273438 12.679688 L 4.230469 12.632812 L 4.457031 12.433594 L 4.496094 12.480469 Z M 4.273438 12.679688 "/>
<path style=" stroke:none;fill-rule:nonzero;fill:rgb(22.745098%,22.745098%,22.352941%);fill-opacity:1;" d="M 8.027344 14.335938 L 8.027344 14.339844 C 9.660156 14.4375 10.820312 13.8125 10.820312 13.8125 L 10.816406 13.808594 C 10.074219 14.15625 9.242188 14.347656 8.371094 14.347656 C 8.253906 14.347656 8.140625 14.34375 8.027344 14.335938 Z M 8.027344 14.335938 "/>
<path style=" stroke:none;fill-rule:nonzero;fill:rgb(22.745098%,22.745098%,22.352941%);fill-opacity:1;" d="M 7.027344 2.929688 L 7.027344 2.960938 L 7.519531 2.707031 C 7.519531 2.707031 6.933594 2.769531 6.417969 2.957031 L 6.964844 2.976562 L 6.964844 2.929688 Z M 7.027344 2.929688 "/>
<path style=" stroke:none;fill-rule:nonzero;fill:rgb(22.745098%,22.745098%,22.352941%);fill-opacity:1;" d="M 8.980469 4.886719 C 8.984375 4.886719 9 4.882812 9.027344 4.878906 C 9.03125 4.851562 9.035156 4.835938 9.035156 4.835938 C 9.027344 4.828125 9.019531 4.824219 9.011719 4.816406 C 8.988281 4.820312 8.972656 4.824219 8.96875 4.824219 Z M 8.980469 4.886719 "/>
<path style=" stroke:none;fill-rule:nonzero;fill:rgb(22.745098%,22.745098%,22.352941%);fill-opacity:1;" d="M 11.273438 4.570312 C 11.28125 4.570312 11.292969 4.570312 11.300781 4.570312 L 11.304688 4.507812 C 11.285156 4.507812 11.261719 4.507812 11.242188 4.507812 L 11.242188 4.546875 C 11.242188 4.546875 11.253906 4.554688 11.273438 4.570312 Z M 11.273438 4.570312 "/>
<path style=" stroke:none;fill-rule:nonzero;fill:rgb(22.745098%,22.745098%,22.352941%);fill-opacity:1;" d="M 12.871094 6.386719 C 12.871094 6.378906 12.871094 6.371094 12.871094 6.367188 L 12.820312 6.363281 C 12.824219 6.371094 12.828125 6.375 12.828125 6.382812 Z M 12.871094 6.386719 "/>
<path style=" stroke:none;fill-rule:nonzero;fill:rgb(22.745098%,22.745098%,22.352941%);fill-opacity:1;" d="M 12.371094 8.597656 C 12.371094 8.597656 12.375 8.59375 12.375 8.589844 C 12.363281 8.5625 12.355469 8.550781 12.355469 8.550781 L 12.328125 8.554688 C 12.324219 8.554688 12.324219 8.558594 12.324219 8.558594 Z M 12.371094 8.597656 "/>
<path style=" stroke:none;fill-rule:nonzero;fill:rgb(22.745098%,22.745098%,22.352941%);fill-opacity:1;" d="M 13.757812 10.785156 L 13.785156 10.714844 C 13.773438 10.738281 13.765625 10.761719 13.757812 10.785156 Z M 13.757812 10.785156 "/>
<path style=" stroke:none;fill-rule:nonzero;fill:rgb(22.745098%,22.745098%,22.352941%);fill-opacity:1;" d="M 8.539062 6.925781 L 8.519531 6.902344 L 8.472656 6.945312 L 8.496094 6.96875 C 8.511719 6.964844 8.519531 6.960938 8.519531 6.960938 C 8.527344 6.953125 8.53125 6.941406 8.539062 6.925781 Z M 8.539062 6.925781 "/>
<path style=" stroke:none;fill-rule:nonzero;fill:rgb(22.745098%,22.745098%,22.352941%);fill-opacity:1;" d="M 10.3125 8.851562 L 10.277344 8.816406 L 10.25 8.816406 L 10.238281 8.859375 L 10.265625 8.894531 Z M 10.3125 8.851562 "/>
<path style=" stroke:none;fill-rule:nonzero;fill:rgb(22.745098%,22.745098%,22.352941%);fill-opacity:1;" d="M 9.441406 11.199219 C 9.441406 11.199219 9.4375 11.199219 9.4375 11.199219 L 9.425781 11.234375 L 9.464844 11.253906 C 9.464844 11.253906 9.46875 11.253906 9.46875 11.253906 Z M 9.441406 11.199219 "/>
<path style=" stroke:none;fill-rule:nonzero;fill:rgb(22.745098%,22.745098%,22.352941%);fill-opacity:1;" d="M 6.890625 11.710938 C 6.847656 11.71875 6.824219 11.722656 6.820312 11.722656 L 6.828125 11.78125 C 6.835938 11.78125 6.859375 11.777344 6.890625 11.773438 L 6.910156 11.726562 C 6.90625 11.722656 6.898438 11.71875 6.890625 11.710938 Z M 6.890625 11.710938 "/>
<path style=" stroke:none;fill-rule:nonzero;fill:rgb(22.745098%,22.745098%,22.352941%);fill-opacity:1;" d="M 6.136719 7.546875 L 6.089844 7.507812 C 6.085938 7.511719 6.082031 7.515625 6.082031 7.519531 C 6.097656 7.546875 6.105469 7.558594 6.105469 7.558594 C 6.113281 7.554688 6.125 7.554688 6.136719 7.546875 Z M 6.136719 7.546875 "/>
<path style=" stroke:none;fill-rule:nonzero;fill:rgb(22.745098%,22.745098%,22.352941%);fill-opacity:1;" d="M 5.253906 9.878906 C 5.246094 9.902344 5.242188 9.917969 5.242188 9.925781 L 5.300781 9.941406 C 5.300781 9.941406 5.304688 9.929688 5.308594 9.910156 C 5.292969 9.886719 5.28125 9.871094 5.28125 9.871094 Z M 5.253906 9.878906 "/>
<path style=" stroke:none;fill-rule:nonzero;fill:rgb(22.745098%,22.745098%,22.352941%);fill-opacity:1;" d="M 6.328125 13.117188 C 6.316406 13.101562 6.308594 13.09375 6.308594 13.09375 L 6.261719 13.136719 C 6.261719 13.136719 6.265625 13.140625 6.273438 13.148438 C 6.296875 13.148438 6.3125 13.152344 6.3125 13.152344 Z M 6.328125 13.117188 "/>
<path style=" stroke:none;fill-rule:nonzero;fill:rgb(22.745098%,22.745098%,22.352941%);fill-opacity:1;" d="M 3.761719 10.359375 C 3.757812 10.359375 3.757812 10.355469 3.753906 10.351562 L 3.714844 10.367188 C 3.714844 10.378906 3.714844 10.390625 3.714844 10.402344 C 3.71875 10.402344 3.71875 10.402344 3.71875 10.40625 Z M 3.761719 10.359375 "/>
<path style=" stroke:none;fill-rule:nonzero;fill:rgb(22.745098%,22.745098%,22.352941%);fill-opacity:1;" d="M 2.820312 8.300781 L 2.757812 8.300781 C 2.757812 8.300781 2.757812 8.316406 2.757812 8.34375 L 2.820312 8.34375 C 2.820312 8.320312 2.820312 8.300781 2.820312 8.300781 Z M 2.820312 8.300781 "/>
<path style=" stroke:none;fill-rule:nonzero;fill:rgb(22.745098%,22.745098%,22.352941%);fill-opacity:1;" d="M 5.1875 5.589844 C 5.21875 5.589844 5.253906 5.589844 5.285156 5.589844 L 5.289062 5.53125 C 5.257812 5.527344 5.226562 5.53125 5.199219 5.527344 C 5.1875 5.546875 5.179688 5.558594 5.179688 5.558594 C 5.179688 5.570312 5.183594 5.578125 5.1875 5.589844 Z M 5.1875 5.589844 "/>
<path style=" stroke:none;fill-rule:nonzero;fill:rgb(22.745098%,22.745098%,22.352941%);fill-opacity:1;" d="M 3.53125 6.085938 C 3.546875 6.066406 3.558594 6.050781 3.570312 6.03125 L 3.570312 5.988281 C 3.523438 6.019531 3.5 6.039062 3.496094 6.039062 Z M 3.53125 6.085938 "/>
<path style=" stroke:none;fill-rule:nonzero;fill:rgb(22.745098%,22.745098%,22.352941%);fill-opacity:1;" d="M 7.074219 4.082031 L 7.070312 4.050781 C 7.046875 4.050781 7.035156 4.050781 7.035156 4.050781 C 7.027344 4.054688 7.019531 4.054688 7.011719 4.058594 L 7.011719 4.082031 Z M 7.074219 4.082031 "/>
<path style=" stroke:none;fill-rule:nonzero;fill:rgb(22.745098%,22.745098%,22.352941%);fill-opacity:1;" d="M 7.027344 2.960938 L 7.027344 2.929688 L 6.964844 2.929688 L 6.964844 2.976562 L 6.992188 2.976562 Z M 7.027344 2.960938 "/>
<path style=" stroke:none;fill-rule:nonzero;fill:rgb(22.745098%,22.745098%,22.352941%);fill-opacity:1;" d="M 4.453125 12.433594 L 4.417969 12.464844 C 4.429688 12.480469 4.4375 12.492188 4.4375 12.492188 C 4.445312 12.5 4.453125 12.503906 4.460938 12.511719 L 4.496094 12.480469 Z M 4.453125 12.433594 "/>
<path style=" stroke:none;fill-rule:nonzero;fill:rgb(16.470589%,16.862746%,16.470589%);fill-opacity:1;" d="M 13.855469 6.464844 C 13.613281 5.8125 13.257812 5.214844 12.816406 4.699219 C 12.992188 5.246094 13.082031 5.820312 13.089844 6.402344 Z M 13.855469 6.464844 "/>
<path style=" stroke:none;fill-rule:nonzero;fill:rgb(16.470589%,16.862746%,16.470589%);fill-opacity:1;" d="M 12.5625 9.027344 C 12.226562 9.824219 11.726562 10.578125 11.066406 11.238281 C 10.855469 11.449219 10.636719 11.640625 10.40625 11.820312 L 11.097656 12.230469 C 11.027344 12.4375 10.703125 13.378906 10.539062 13.597656 C 9.945312 13.925781 8.402344 14.15625 8.097656 14.199219 C 7.367188 14.007812 6.761719 13.519531 6.480469 13.261719 C 6.449219 13.261719 6.421875 13.261719 6.390625 13.261719 C 6.648438 13.507812 7.273438 14.03125 8.039062 14.246094 L 8.03125 14.335938 C 8.140625 14.34375 8.253906 14.347656 8.371094 14.347656 C 9.246094 14.347656 10.074219 14.15625 10.816406 13.8125 L 10.597656 13.621094 C 10.789062 13.339844 11.128906 12.339844 11.164062 12.222656 C 11.886719 11.914062 12.683594 10.894531 12.824219 10.707031 L 13.757812 10.785156 C 13.765625 10.761719 13.773438 10.738281 13.785156 10.714844 L 12.847656 10.648438 C 12.84375 9.964844 12.695312 9.398438 12.5625 9.027344 Z M 12.5625 9.027344 "/>
</g>
</svg>
