<?xml version="1.0" encoding="UTF-8"?>
<svg xmlns="http://www.w3.org/2000/svg" xmlns:xlink="http://www.w3.org/1999/xlink" width="300px" height="300px" viewBox="0 0 300 300" version="1.1">
<g id="surface1">
<path style=" stroke:none;fill-rule:nonzero;fill:rgb(85.09804%,85.09804%,85.09804%);fill-opacity:1;" d="M 170.859375 114.023438 C 170.085938 114.140625 169.453125 114.375 169.453125 114.5625 C 169.453125 114.632812 169.851562 114.773438 170.320312 114.867188 C 170.789062 114.960938 171.515625 115.195312 171.914062 115.429688 L 172.640625 115.804688 L 173.320312 115.429688 C 173.695312 115.195312 174.398438 114.960938 174.890625 114.867188 C 175.851562 114.679688 176.015625 114.421875 175.3125 114.1875 C 174.75 113.976562 171.867188 113.882812 170.859375 114.023438 Z M 170.859375 114.023438 "/>
<path style=" stroke:none;fill-rule:nonzero;fill:rgb(85.09804%,85.09804%,85.09804%);fill-opacity:1;" d="M 163.570312 118.804688 C 163.3125 119.203125 162.9375 119.90625 162.773438 120.304688 C 162.585938 120.726562 162.398438 121.21875 162.328125 121.359375 C 162.1875 121.664062 161.835938 123.117188 161.695312 123.960938 C 161.625 124.335938 161.671875 124.5 161.90625 124.6875 C 162.328125 125.0625 162.515625 124.992188 162.796875 124.335938 C 163.078125 123.703125 163.875 122.53125 164.34375 122.039062 C 164.601562 121.757812 164.625 121.570312 164.625 120.28125 C 164.625 119.507812 164.695312 118.6875 164.765625 118.453125 C 164.859375 118.101562 164.835938 118.078125 164.460938 118.078125 C 164.132812 118.078125 163.96875 118.21875 163.570312 118.804688 Z M 163.570312 118.804688 "/>
<path style=" stroke:none;fill-rule:nonzero;fill:rgb(85.09804%,85.09804%,85.09804%);fill-opacity:1;" d="M 180.515625 118.359375 C 180.585938 118.5 180.65625 119.320312 180.65625 120.1875 L 180.65625 121.734375 L 181.265625 122.414062 C 181.59375 122.789062 182.0625 123.492188 182.320312 124.007812 C 182.578125 124.523438 182.835938 124.96875 182.90625 124.992188 C 182.953125 125.039062 183.140625 124.898438 183.328125 124.710938 C 183.609375 124.429688 183.632812 124.289062 183.515625 123.5625 C 183.421875 122.71875 183.140625 121.664062 182.8125 120.914062 C 182.695312 120.679688 182.625 120.46875 182.625 120.421875 C 182.625 120.28125 181.617188 118.640625 181.382812 118.359375 C 181.265625 118.195312 180.984375 118.078125 180.75 118.078125 C 180.421875 118.078125 180.398438 118.101562 180.515625 118.359375 Z M 180.515625 118.359375 "/>
<path style=" stroke:none;fill-rule:nonzero;fill:rgb(85.09804%,85.09804%,85.09804%);fill-opacity:1;" d="M 171.890625 120.539062 C 171.515625 120.726562 171.117188 120.984375 170.976562 121.101562 C 170.882812 121.21875 170.695312 121.289062 170.578125 121.289062 C 170.507812 121.289062 170.390625 121.382812 170.367188 121.5 C 170.296875 121.617188 170.203125 121.710938 170.109375 121.710938 C 170.015625 121.710938 169.851562 121.828125 169.734375 121.96875 C 169.617188 122.085938 169.359375 122.34375 169.148438 122.484375 C 168.773438 122.789062 168.773438 122.8125 168.914062 123.679688 C 168.984375 124.148438 169.101562 124.640625 169.171875 124.78125 C 169.242188 124.898438 169.3125 125.226562 169.382812 125.507812 C 169.429688 125.789062 169.570312 126.210938 169.664062 126.421875 C 169.78125 126.632812 169.875 126.890625 169.875 126.984375 C 169.875 127.078125 170.039062 127.265625 170.203125 127.382812 C 170.484375 127.546875 170.953125 127.617188 172.289062 127.617188 C 173.226562 127.617188 174.28125 127.59375 174.585938 127.523438 C 175.125 127.429688 175.21875 127.335938 175.476562 126.84375 C 175.617188 126.515625 175.875 125.71875 176.039062 125.0625 C 176.203125 124.40625 176.390625 123.65625 176.460938 123.398438 C 176.601562 122.929688 176.578125 122.859375 176.085938 122.4375 C 175.054688 121.5 173.015625 120.1875 172.617188 120.1875 C 172.59375 120.1875 172.265625 120.351562 171.890625 120.539062 Z M 171.890625 120.539062 "/>
<path style=" stroke:none;fill-rule:nonzero;fill:rgb(85.09804%,85.09804%,85.09804%);fill-opacity:1;" d="M 151.96875 123.890625 C 151.6875 123.984375 151.359375 124.078125 151.242188 124.078125 C 151.101562 124.101562 150.796875 124.359375 150.5625 124.6875 C 150.351562 125.015625 150.09375 125.320312 150.046875 125.414062 C 149.976562 125.484375 149.554688 126.117188 149.085938 126.820312 C 148.640625 127.5 148.195312 128.132812 148.125 128.203125 C 148.078125 128.273438 147.65625 128.882812 147.164062 129.539062 C 145.6875 131.648438 145.195312 132.234375 143.835938 133.59375 C 142.523438 134.90625 141.960938 135.398438 141.773438 135.398438 C 141.679688 135.398438 141.609375 135.445312 141.585938 135.515625 C 141.5625 135.5625 141.28125 135.75 140.976562 135.9375 C 140.226562 136.382812 138.960938 136.429688 135.09375 136.242188 C 133.40625 136.125 131.460938 136.03125 130.78125 136.007812 C 129.117188 135.890625 127.78125 136.359375 125.648438 137.742188 C 124.640625 138.398438 124.546875 138.421875 124.429688 138.070312 C 124.359375 137.953125 124.171875 137.601562 123.984375 137.320312 C 123.796875 137.015625 123.679688 136.710938 123.726562 136.617188 C 123.75 136.476562 123.632812 136.265625 123.375 136.101562 C 123.164062 135.9375 122.976562 135.75 122.976562 135.65625 C 122.976562 135.375 121.476562 134.015625 120.726562 133.617188 C 119.296875 132.84375 117.070312 132.773438 116.296875 133.5 C 116.085938 133.710938 115.804688 133.898438 115.664062 133.945312 C 114.890625 134.179688 113.882812 136.078125 113.882812 137.25 C 113.882812 138.421875 114.351562 139.148438 115.757812 140.179688 C 116.367188 140.625 116.953125 141.1875 116.953125 141.351562 C 116.953125 141.445312 117.210938 141.703125 117.46875 141.890625 C 117.890625 142.148438 118.171875 142.242188 118.757812 142.242188 C 119.554688 142.242188 120.304688 142.640625 120.304688 143.0625 C 120.304688 143.203125 120.117188 143.742188 119.882812 144.28125 C 119.039062 146.132812 118.59375 148.335938 118.054688 153.539062 C 117.867188 155.4375 117.9375 158.625 118.195312 158.882812 C 118.5 159.1875 118.382812 159.679688 117.703125 160.664062 L 117.046875 161.648438 L 116.179688 161.578125 C 115.40625 161.484375 115.289062 161.507812 115.242188 161.71875 C 115.21875 161.929688 115.03125 161.835938 114.304688 161.179688 C 113.34375 160.289062 112.875 160.195312 112.21875 160.640625 C 112.007812 160.804688 111.609375 161.015625 111.328125 161.132812 C 110.695312 161.390625 110.625 161.789062 111.210938 161.789062 C 111.632812 161.789062 112.335938 162.257812 112.171875 162.421875 C 112.125 162.46875 111.960938 162.445312 111.796875 162.351562 C 111.375 162.117188 110.414062 162.164062 110.320312 162.421875 C 110.273438 162.539062 110.367188 162.679688 110.601562 162.773438 C 110.789062 162.84375 111.09375 162.960938 111.304688 163.03125 C 112.007812 163.3125 111.539062 163.875 110.554688 163.875 C 109.828125 163.875 109.40625 164.015625 109.40625 164.25 C 109.40625 164.507812 109.992188 164.625 110.695312 164.507812 C 111.257812 164.4375 111.375 164.484375 112.21875 165.046875 C 114.09375 166.3125 114.5625 166.429688 115.710938 166.03125 C 119.203125 164.789062 120.890625 163.476562 122.0625 161.039062 C 122.34375 160.476562 122.554688 159.890625 122.554688 159.726562 C 122.554688 159.492188 122.648438 159.421875 123 159.375 C 123.375 159.351562 123.46875 159.234375 123.773438 158.507812 C 124.359375 157.101562 125.203125 155.367188 125.296875 155.367188 C 125.34375 155.367188 125.765625 155.648438 126.234375 156.023438 C 126.726562 156.398438 127.195312 156.75 127.359375 156.820312 C 127.476562 156.890625 128.109375 157.289062 128.789062 157.6875 C 129.421875 158.085938 130.101562 158.4375 130.289062 158.507812 C 130.476562 158.554688 130.804688 158.671875 131.015625 158.789062 C 131.671875 159.046875 133.335938 159.398438 133.945312 159.398438 C 134.4375 159.398438 134.929688 159.304688 136.757812 158.789062 C 138.140625 158.390625 140.507812 158.273438 142.757812 158.507812 C 143.90625 158.625 144.890625 158.742188 144.984375 158.789062 C 145.148438 158.882812 147.65625 159.257812 148.898438 159.375 L 149.648438 159.445312 L 150 160.476562 C 150.1875 161.039062 150.398438 161.578125 150.515625 161.648438 C 150.609375 161.742188 150.703125 161.859375 150.703125 161.929688 C 150.703125 162 150.796875 162.1875 150.9375 162.328125 C 151.289062 162.75 153.351562 164.835938 154.242188 165.703125 C 156.164062 167.460938 156.914062 168.914062 157.5 171.867188 C 157.851562 173.8125 158.671875 174.773438 159.914062 174.75 C 160.851562 174.75 161.882812 174.351562 162.234375 173.882812 C 162.492188 173.53125 162.515625 173.460938 162.328125 172.851562 C 162.164062 172.125 161.625 170.953125 161.460938 170.882812 C 161.390625 170.859375 161.34375 170.765625 161.34375 170.671875 C 161.34375 170.578125 161.25 170.367188 161.15625 170.15625 C 161.0625 169.96875 160.828125 169.359375 160.664062 168.84375 C 160.195312 167.53125 159.75 166.640625 159.304688 166.242188 C 158.132812 165.210938 157.710938 164.742188 157.640625 164.390625 C 157.570312 164.179688 157.476562 164.015625 157.429688 164.015625 C 157.359375 164.015625 157.265625 163.851562 157.21875 163.617188 C 157.171875 163.40625 157.054688 163.054688 156.9375 162.820312 C 156.84375 162.585938 156.585938 162.046875 156.421875 161.578125 C 156.257812 161.109375 156.046875 160.664062 156 160.617188 C 155.929688 160.523438 155.882812 160.382812 155.882812 160.265625 C 155.882812 160.171875 155.765625 159.820312 155.625 159.515625 C 155.484375 159.1875 155.203125 158.554688 155.015625 158.085938 C 154.851562 157.617188 154.640625 157.21875 154.59375 157.171875 C 154.570312 157.125 154.453125 156.960938 154.40625 156.75 C 154.359375 156.5625 154.125 156.140625 153.914062 155.8125 C 153.679688 155.484375 153.492188 155.179688 153.492188 155.132812 C 153.492188 155.109375 153.257812 154.851562 152.976562 154.546875 C 152.34375 153.914062 151.476562 153.609375 150.023438 153.46875 C 149.460938 153.421875 148.96875 153.304688 148.945312 153.257812 C 148.898438 153.1875 148.734375 153.117188 148.59375 153.117188 C 148.453125 153.117188 148.3125 153.070312 148.242188 152.976562 C 148.148438 152.835938 148.382812 152.601562 149.4375 151.734375 C 149.859375 151.382812 150.234375 151.078125 150.28125 151.03125 C 150.328125 150.984375 150.679688 150.703125 151.054688 150.398438 C 151.710938 149.882812 152.0625 149.578125 153.609375 148.125 C 153.9375 147.820312 154.453125 147.328125 154.78125 147.046875 C 155.296875 146.578125 155.367188 146.4375 155.4375 145.757812 C 155.507812 144.867188 155.578125 144.773438 156.539062 144.257812 C 157.265625 143.882812 157.875 143.882812 158.742188 144.257812 C 159.609375 144.65625 161.859375 145.3125 162.75 145.453125 C 163.242188 145.546875 164.929688 145.6875 166.5 145.804688 C 168.070312 145.921875 169.40625 146.039062 169.476562 146.085938 C 169.570312 146.132812 169.992188 146.226562 170.460938 146.296875 C 171.984375 146.507812 172.96875 146.859375 173.039062 147.234375 C 173.15625 147.632812 173.53125 148.359375 173.90625 148.898438 C 174.070312 149.132812 174.210938 149.4375 174.210938 149.554688 C 174.210938 149.882812 174.75 150.09375 175.242188 149.976562 C 175.875 149.835938 176.953125 149.085938 177.867188 148.171875 C 178.757812 147.257812 179.4375 146.90625 180.632812 146.765625 C 181.101562 146.71875 181.570312 146.601562 181.640625 146.484375 C 181.734375 146.367188 181.875 146.296875 181.945312 146.296875 C 182.109375 146.296875 183.140625 145.476562 183.820312 144.820312 C 184.40625 144.257812 184.617188 143.8125 184.523438 143.414062 C 184.453125 143.109375 184.359375 143.0625 183.46875 143.0625 C 182.929688 143.0625 181.96875 143.179688 181.3125 143.273438 C 180.445312 143.4375 179.90625 143.460938 179.554688 143.367188 C 179.296875 143.296875 178.734375 143.203125 178.359375 143.15625 C 177.984375 143.085938 177.515625 142.96875 177.351562 142.851562 C 177.046875 142.664062 177 142.6875 176.859375 142.898438 C 176.742188 143.0625 176.578125 143.15625 176.367188 143.109375 C 176.15625 143.0625 176.015625 143.109375 175.945312 143.273438 C 175.851562 143.53125 175.335938 143.554688 174.703125 143.367188 C 174.210938 143.203125 172.78125 142.804688 171.28125 142.382812 C 170.71875 142.21875 169.992188 141.984375 169.664062 141.890625 C 169.359375 141.796875 168.75 141.609375 168.328125 141.492188 C 166.546875 140.976562 165.585938 140.671875 165.398438 140.554688 C 165.28125 140.507812 164.976562 140.414062 164.695312 140.367188 C 164.4375 140.296875 164.085938 140.226562 163.921875 140.132812 C 163.78125 140.085938 163.101562 139.851562 162.398438 139.664062 C 161.695312 139.453125 160.96875 139.21875 160.78125 139.171875 C 160.59375 139.101562 160.148438 139.007812 159.796875 138.9375 C 159.445312 138.890625 159.117188 138.796875 159.023438 138.75 C 158.953125 138.679688 158.554688 138.539062 158.15625 138.398438 C 157.3125 138.09375 157.101562 138.140625 155.460938 138.9375 C 154.710938 139.289062 154.335938 139.382812 153.28125 139.40625 C 151.617188 139.5 150.09375 140.039062 148.007812 141.351562 C 147.726562 141.539062 147.445312 141.679688 147.398438 141.679688 C 147.28125 141.679688 145.921875 142.664062 145.546875 143.039062 C 144.492188 144.070312 141.492188 145.3125 140.039062 145.3125 C 139.476562 145.3125 137.53125 144.773438 137.53125 144.609375 C 137.53125 144.515625 137.460938 144.46875 137.34375 144.46875 C 136.945312 144.46875 134.789062 142.640625 134.929688 142.429688 C 134.976562 142.335938 135.703125 142.171875 136.523438 142.007812 C 138.164062 141.726562 138.585938 141.492188 138.75 140.695312 C 138.796875 140.484375 138.890625 140.25 138.984375 140.179688 C 139.078125 140.109375 139.898438 139.804688 140.835938 139.523438 L 142.5 138.960938 L 143.765625 137.695312 C 145.148438 136.335938 145.453125 135.984375 146.039062 135.09375 C 146.25 134.765625 146.460938 134.460938 146.507812 134.414062 C 146.578125 134.34375 146.929688 133.710938 147.609375 132.398438 C 148.523438 130.640625 148.96875 130.101562 149.53125 130.101562 C 149.695312 130.101562 150.046875 129.890625 150.304688 129.679688 C 150.5625 129.445312 151.054688 129.070312 151.40625 128.882812 C 152.109375 128.460938 152.390625 128.15625 152.273438 127.898438 C 152.179688 127.640625 151.828125 127.664062 151.125 128.0625 C 150.632812 128.34375 150.492188 128.390625 150.398438 128.25 C 150.210938 127.992188 150.375 126.890625 150.679688 126.257812 C 151.007812 125.578125 151.242188 125.367188 152.179688 124.851562 C 153.632812 124.054688 153.445312 123.328125 151.96875 123.890625 Z M 113.039062 161.367188 C 113.15625 161.4375 113.203125 161.53125 113.132812 161.578125 C 113.085938 161.648438 112.921875 161.578125 112.804688 161.460938 C 112.546875 161.203125 112.6875 161.132812 113.039062 161.367188 Z M 113.039062 161.367188 "/>
<path style=" stroke:none;fill-rule:nonzero;fill:rgb(85.09804%,85.09804%,85.09804%);fill-opacity:1;" d="M 116.484375 128.085938 C 116.320312 128.132812 116.109375 128.226562 116.039062 128.296875 C 115.945312 128.367188 115.640625 128.507812 115.335938 128.601562 C 114.28125 129 108.632812 131.671875 108.421875 131.90625 C 108.375 131.953125 107.882812 132.257812 107.296875 132.609375 C 106.734375 132.9375 106.242188 133.265625 106.195312 133.335938 C 106.195312 133.382812 106.101562 133.453125 106.007812 133.453125 C 105.796875 133.453125 103.640625 134.953125 101.601562 136.59375 C 101.484375 136.640625 100.523438 137.578125 99.46875 138.609375 C 97.664062 140.390625 96.140625 142.171875 95.390625 143.414062 C 95.226562 143.742188 95.015625 144 94.96875 144.046875 C 94.898438 144.140625 93.5625 146.835938 93.304688 147.445312 C 91.40625 152.132812 91.640625 157.617188 93.9375 162.328125 C 94.921875 164.320312 96.539062 166.757812 97.945312 168.257812 C 99.585938 170.015625 100.148438 170.554688 101.554688 171.679688 C 101.976562 172.03125 102.445312 172.453125 102.632812 172.617188 C 102.796875 172.78125 103.21875 173.085938 103.546875 173.320312 C 103.898438 173.53125 104.671875 174.09375 105.351562 174.539062 C 106.007812 174.984375 106.78125 175.5 107.0625 175.664062 C 107.34375 175.828125 107.8125 176.085938 108.117188 176.25 C 108.398438 176.4375 108.796875 176.648438 109.03125 176.742188 C 109.242188 176.8125 109.40625 176.953125 109.40625 177 C 109.40625 177.046875 109.570312 177.164062 109.78125 177.210938 C 109.992188 177.257812 110.203125 177.351562 110.226562 177.398438 C 110.390625 177.585938 113.765625 179.15625 115.546875 179.859375 C 116.296875 180.117188 117.070312 180.445312 117.304688 180.5625 C 117.539062 180.679688 118.453125 180.984375 119.34375 181.265625 C 120.234375 181.546875 121.171875 181.851562 121.429688 181.945312 C 121.710938 182.0625 122.15625 182.203125 122.414062 182.25 C 122.695312 182.296875 123 182.390625 123.117188 182.460938 C 123.421875 182.625 125.085938 183.023438 127.734375 183.609375 C 132.257812 184.617188 133.828125 184.898438 137.414062 185.296875 C 138.375 185.414062 139.757812 185.554688 140.484375 185.648438 C 142.945312 185.929688 150.234375 186.070312 153.914062 185.929688 C 159.492188 185.71875 165.421875 184.992188 170.015625 183.960938 C 170.742188 183.820312 171.679688 183.609375 172.054688 183.539062 C 172.453125 183.46875 172.851562 183.375 172.96875 183.328125 C 173.0625 183.257812 173.484375 183.164062 173.859375 183.046875 C 174.257812 182.953125 174.9375 182.789062 175.40625 182.671875 C 176.882812 182.296875 177.679688 182.0625 177.984375 181.898438 C 178.148438 181.804688 178.382812 181.734375 178.523438 181.734375 C 178.664062 181.734375 178.945312 181.640625 179.15625 181.546875 C 179.367188 181.429688 179.765625 181.3125 180.046875 181.242188 C 180.304688 181.195312 180.5625 181.101562 180.609375 181.03125 C 180.65625 180.960938 180.796875 180.914062 180.914062 180.914062 C 181.03125 180.890625 181.40625 180.796875 181.710938 180.632812 C 182.015625 180.46875 182.34375 180.375 182.414062 180.351562 C 182.671875 180.351562 184.195312 179.648438 184.125 179.578125 C 184.078125 179.53125 182.789062 179.859375 182.273438 180.070312 C 182.109375 180.117188 181.382812 180.304688 180.65625 180.46875 C 179.929688 180.632812 179.015625 180.867188 178.617188 180.960938 C 176.671875 181.5 173.554688 182.0625 170.578125 182.4375 C 169.921875 182.53125 169.101562 182.648438 168.75 182.71875 C 168.421875 182.789062 167.25 182.929688 166.171875 183 C 165.09375 183.09375 163.617188 183.210938 162.890625 183.28125 C 161.109375 183.46875 151.59375 183.46875 149.953125 183.28125 C 149.25 183.210938 147.796875 183.09375 146.765625 183 C 145.6875 182.929688 144.421875 182.8125 143.953125 182.71875 C 143.460938 182.648438 142.570312 182.53125 141.960938 182.4375 C 139.664062 182.15625 135.351562 181.359375 134.039062 180.984375 C 133.6875 180.890625 133.125 180.75 132.773438 180.703125 C 132.445312 180.632812 132.070312 180.539062 131.929688 180.46875 C 131.835938 180.421875 131.460938 180.28125 131.109375 180.210938 C 129.234375 179.742188 126.46875 178.921875 126.046875 178.6875 C 125.929688 178.617188 125.625 178.523438 125.367188 178.453125 C 125.085938 178.40625 124.78125 178.3125 124.664062 178.242188 C 124.546875 178.171875 123.84375 177.890625 123.117188 177.609375 C 119.414062 176.203125 116.109375 174.515625 112.265625 172.125 C 111.84375 171.84375 110.765625 171.09375 110.648438 171 C 110.625 170.953125 110.320312 170.742188 110.015625 170.53125 C 109.664062 170.296875 109.40625 170.0625 109.40625 170.015625 C 109.40625 169.945312 109.289062 169.875 109.195312 169.875 C 109.078125 169.875 108.9375 169.804688 108.890625 169.6875 C 108.820312 169.617188 108.46875 169.265625 108.070312 168.984375 C 106.945312 168.09375 104.273438 165.304688 103.359375 164.085938 C 102.890625 163.476562 102.421875 162.867188 102.304688 162.726562 C 102.210938 162.585938 102.117188 162.445312 102.117188 162.375 C 102.117188 162.328125 102.023438 162.1875 101.929688 162.070312 C 101.8125 161.953125 101.554688 161.53125 101.367188 161.15625 C 101.15625 160.757812 100.921875 160.359375 100.851562 160.242188 C 100.617188 159.820312 99.890625 158.15625 99.890625 157.96875 C 99.890625 157.898438 99.773438 157.617188 99.679688 157.40625 C 99.5625 157.171875 99.421875 156.75 99.375 156.421875 C 99.328125 156.117188 99.234375 155.789062 99.164062 155.695312 C 99.046875 155.578125 98.882812 154.289062 98.671875 152.296875 C 98.578125 151.476562 98.976562 147.65625 99.164062 147.28125 C 99.234375 147.140625 99.328125 146.8125 99.375 146.507812 C 99.421875 146.226562 99.539062 145.875 99.609375 145.757812 C 99.65625 145.617188 99.84375 145.148438 100.03125 144.679688 C 100.40625 143.671875 101.179688 142.101562 101.71875 141.28125 C 101.929688 140.953125 102.117188 140.648438 102.117188 140.625 C 102.117188 140.578125 102.351562 140.25 102.609375 139.898438 C 102.867188 139.523438 103.148438 139.171875 103.195312 139.101562 C 103.96875 138.046875 105.609375 136.242188 106.734375 135.210938 C 107.085938 134.90625 107.460938 134.53125 107.601562 134.390625 C 108.140625 133.875 110.929688 131.765625 111.070312 131.765625 C 111.140625 131.765625 111.210938 131.71875 111.210938 131.648438 C 111.210938 131.601562 111.539062 131.367188 111.914062 131.132812 C 112.289062 130.898438 112.617188 130.6875 112.617188 130.59375 C 112.617188 130.546875 112.664062 130.523438 112.734375 130.523438 C 112.828125 130.523438 113.15625 130.335938 113.484375 130.125 C 113.835938 129.890625 114.445312 129.539062 114.867188 129.304688 C 115.289062 129.09375 115.664062 128.882812 115.710938 128.835938 C 115.734375 128.789062 116.109375 128.601562 116.53125 128.367188 C 117.234375 128.039062 117.210938 127.921875 116.484375 128.085938 Z M 116.484375 128.085938 "/>
<path style=" stroke:none;fill-rule:nonzero;fill:rgb(85.09804%,85.09804%,85.09804%);fill-opacity:1;" d="M 164.15625 131.109375 C 163.851562 132 163.945312 132.375 164.742188 133.171875 C 165.421875 133.898438 166.382812 134.695312 167.015625 135.070312 C 168 135.703125 168.890625 136.007812 168.890625 135.703125 C 168.890625 135.65625 169.125 135.492188 169.40625 135.328125 C 169.640625 135.1875 169.875 135 169.875 134.929688 C 169.875 134.835938 169.59375 134.4375 169.242188 134.0625 C 168.890625 133.6875 168.585938 133.242188 168.539062 133.054688 C 168.46875 132.890625 168.398438 132.75 168.328125 132.75 C 168.28125 132.75 168.140625 132.539062 168.070312 132.257812 C 167.835938 131.601562 167.648438 131.484375 166.5 131.320312 C 165.9375 131.25 165.421875 131.132812 165.328125 131.085938 C 165.257812 131.015625 165 130.898438 164.742188 130.804688 C 164.320312 130.6875 164.296875 130.6875 164.15625 131.109375 Z M 164.15625 131.109375 "/>
<path style=" stroke:none;fill-rule:nonzero;fill:rgb(85.09804%,85.09804%,85.09804%);fill-opacity:1;" d="M 180.257812 130.945312 C 179.90625 131.109375 179.226562 131.273438 178.734375 131.34375 C 177.75 131.484375 177.609375 131.578125 177.1875 132.351562 C 176.671875 133.289062 176.53125 133.5 176.460938 133.59375 C 176.414062 133.617188 176.15625 133.945312 175.875 134.296875 C 175.359375 134.929688 175.359375 134.929688 175.640625 135.164062 C 175.78125 135.304688 175.945312 135.398438 176.039062 135.398438 C 176.085938 135.398438 176.226562 135.492188 176.320312 135.609375 C 176.507812 135.84375 177.164062 135.890625 177.164062 135.679688 C 177.164062 135.632812 177.351562 135.515625 177.585938 135.46875 C 177.820312 135.421875 178.007812 135.328125 178.007812 135.257812 C 178.007812 135.210938 178.171875 135.070312 178.382812 135 C 178.875 134.789062 180.023438 133.828125 180.84375 132.914062 C 181.171875 132.5625 181.21875 132.375 181.21875 131.648438 C 181.21875 130.664062 181.101562 130.570312 180.257812 130.945312 Z M 180.257812 130.945312 "/>
<path style=" stroke:none;fill-rule:nonzero;fill:rgb(85.09804%,85.09804%,85.09804%);fill-opacity:1;" d="M 188.085938 132.164062 C 188.4375 132.375 189.070312 132.726562 189.515625 132.960938 C 189.960938 133.171875 190.3125 133.40625 190.3125 133.476562 C 190.3125 133.523438 190.382812 133.59375 190.453125 133.59375 C 190.617188 133.59375 193.265625 135.351562 193.476562 135.585938 C 193.546875 135.679688 193.710938 135.84375 193.828125 135.890625 C 194.789062 136.429688 197.648438 139.242188 198.867188 140.835938 C 199.851562 142.101562 200.8125 143.625 200.8125 143.90625 C 200.8125 143.976562 200.882812 144.046875 200.953125 144.046875 C 201.046875 144.046875 201.09375 144.117188 201.09375 144.210938 C 201.09375 144.304688 201.234375 144.632812 201.375 144.9375 C 202.125 146.601562 202.453125 147.773438 202.710938 149.789062 C 202.898438 151.195312 202.898438 151.570312 202.710938 153.070312 C 202.476562 154.851562 202.148438 156.117188 201.515625 157.617188 C 201.117188 158.507812 200.039062 160.429688 199.570312 161.015625 C 199.453125 161.203125 199.242188 161.484375 199.148438 161.648438 C 198.375 162.75 195.960938 165.210938 194.320312 166.523438 C 193.21875 167.414062 190.265625 169.453125 190.101562 169.453125 C 190.054688 169.453125 189.75 169.640625 189.421875 169.851562 C 188.71875 170.320312 185.695312 171.867188 184.523438 172.335938 C 184.054688 172.546875 183.539062 172.734375 183.398438 172.804688 C 183.234375 172.875 182.765625 173.085938 182.34375 173.226562 C 181.921875 173.390625 181.453125 173.601562 181.289062 173.671875 C 180.117188 174.164062 175.523438 175.5 173.226562 176.015625 C 172.5 176.203125 171.726562 176.367188 171.492188 176.4375 C 171.257812 176.507812 170.765625 176.601562 170.367188 176.648438 C 169.992188 176.695312 169.476562 176.789062 169.242188 176.859375 C 169.03125 176.929688 168.304688 177.046875 167.648438 177.140625 C 166.96875 177.210938 166.007812 177.328125 165.46875 177.398438 C 162 177.914062 159.914062 178.03125 154.6875 178.03125 C 150.1875 178.03125 148.898438 177.984375 146.4375 177.726562 C 144.820312 177.5625 143.34375 177.375 143.132812 177.328125 C 142.945312 177.304688 142.195312 177.164062 141.46875 177.046875 C 138.820312 176.671875 137.34375 176.367188 134.460938 175.617188 C 134.109375 175.523438 133.476562 175.359375 133.054688 175.265625 C 132.65625 175.148438 132.117188 175.007812 131.90625 174.914062 C 131.671875 174.84375 131.390625 174.773438 131.273438 174.773438 C 131.132812 174.796875 131.273438 174.867188 131.554688 174.9375 C 131.835938 175.007812 132.070312 175.125 132.070312 175.195312 C 132.070312 175.265625 132.1875 175.3125 132.328125 175.3125 C 132.46875 175.3125 132.75 175.429688 132.984375 175.523438 C 133.195312 175.640625 133.429688 175.734375 133.5 175.734375 C 133.59375 175.734375 133.828125 175.828125 134.085938 175.945312 C 134.765625 176.25 138.046875 177.28125 139.546875 177.65625 C 146.90625 179.460938 152.929688 180.210938 160.078125 180.210938 C 166.828125 180.210938 173.507812 179.484375 179.039062 178.101562 C 179.671875 177.9375 180.445312 177.773438 180.75 177.703125 C 181.40625 177.5625 181.851562 177.421875 184.359375 176.625 C 185.296875 176.367188 186.117188 176.085938 186.1875 176.039062 C 186.28125 175.992188 186.796875 175.78125 187.382812 175.617188 C 187.945312 175.40625 188.460938 175.21875 188.507812 175.171875 C 188.53125 175.148438 188.953125 174.960938 189.398438 174.773438 C 189.867188 174.585938 190.710938 174.234375 191.25 174 C 191.789062 173.71875 192.304688 173.507812 192.398438 173.507812 C 192.46875 173.507812 192.5625 173.460938 192.585938 173.390625 C 192.609375 173.34375 193.007812 173.109375 193.476562 172.875 C 193.945312 172.640625 194.34375 172.429688 194.390625 172.382812 C 194.414062 172.359375 194.601562 172.242188 194.789062 172.148438 C 195.1875 171.960938 195.210938 171.9375 196.875 170.859375 C 197.507812 170.4375 198.140625 170.015625 198.28125 169.945312 C 198.398438 169.875 198.539062 169.78125 198.585938 169.734375 C 198.609375 169.6875 198.84375 169.523438 199.078125 169.359375 C 200.179688 168.515625 200.742188 168.023438 202.242188 166.523438 C 203.15625 165.65625 204.140625 164.578125 204.445312 164.179688 C 204.703125 163.78125 205.054688 163.335938 205.171875 163.195312 C 205.664062 162.5625 207.117188 159.914062 207.117188 159.609375 C 207.140625 159.539062 207.257812 159.234375 207.398438 158.929688 C 207.539062 158.625 207.679688 158.273438 207.679688 158.15625 C 207.679688 158.039062 207.773438 157.6875 207.867188 157.382812 C 208.265625 156.304688 208.429688 153.539062 208.265625 151.96875 C 208.101562 150.679688 207.703125 149.039062 207.398438 148.3125 C 207.328125 148.148438 207.140625 147.703125 206.976562 147.328125 C 206.601562 146.4375 206.203125 145.664062 205.6875 144.914062 C 205.476562 144.585938 205.289062 144.304688 205.289062 144.257812 C 205.289062 144.210938 205.21875 144.09375 205.125 143.976562 C 204.867188 143.71875 204.726562 143.53125 204.257812 142.875 C 204.023438 142.570312 203.648438 142.125 203.414062 141.867188 C 203.179688 141.632812 202.875 141.28125 202.710938 141.117188 C 202.265625 140.601562 200.296875 138.84375 199.335938 138.09375 C 198.304688 137.320312 196.078125 135.820312 195.28125 135.398438 C 195.140625 135.304688 194.742188 135.09375 194.390625 134.90625 C 192.867188 134.039062 190.757812 133.03125 190.476562 133.03125 C 190.40625 133.03125 190.3125 132.984375 190.289062 132.914062 C 190.289062 132.867188 189.773438 132.632812 189.210938 132.398438 C 188.625 132.1875 188.085938 131.953125 188.015625 131.882812 C 187.945312 131.835938 187.78125 131.765625 187.6875 131.765625 C 187.546875 131.765625 187.734375 131.953125 188.085938 132.164062 Z M 188.085938 132.164062 "/>
<path style=" stroke:none;fill-rule:nonzero;fill:rgb(85.09804%,85.09804%,85.09804%);fill-opacity:1;" d="M 184.40625 179.484375 C 184.5 179.507812 184.640625 179.507812 184.6875 179.460938 C 184.734375 179.414062 184.640625 179.367188 184.5 179.390625 C 184.335938 179.390625 184.289062 179.4375 184.40625 179.484375 Z M 184.40625 179.484375 "/>
</g>
</svg>
