<?xml version="1.0" encoding="UTF-8"?>
<svg xmlns="http://www.w3.org/2000/svg" xmlns:xlink="http://www.w3.org/1999/xlink" width="20px" height="19px" viewBox="0 0 20 19" version="1.1">
<g id="surface1">
<path style=" stroke:none;fill-rule:nonzero;fill:rgb(0%,0%,0%);fill-opacity:1;" d="M 20 13.417969 C 20 12.304688 19.648438 11.230469 18.988281 10.3125 C 18.507812 9.652344 17.894531 9.101562 17.183594 8.695312 C 18.019531 7.941406 18.546875 6.875 18.546875 5.695312 C 18.546875 3.414062 16.59375 1.5625 14.195312 1.5625 C 12.773438 1.5625 11.4375 2.230469 10.628906 3.328125 C 10.425781 3.296875 10.214844 3.28125 10 3.28125 C 9.785156 3.28125 9.574219 3.296875 9.371094 3.328125 C 8.5625 2.230469 7.226562 1.5625 5.804688 1.5625 C 3.40625 1.5625 1.453125 3.414062 1.453125 5.695312 C 1.453125 6.875 1.976562 7.941406 2.816406 8.695312 C 2.105469 9.101562 1.492188 9.652344 1.011719 10.3125 C 0.351562 11.230469 0 12.304688 0 13.417969 L 0 15.71875 L 4.195312 15.71875 L 4.195312 17.4375 L 15.804688 17.4375 L 15.804688 15.71875 L 20 15.71875 Z M 14.195312 2.582031 C 16 2.582031 17.472656 3.976562 17.472656 5.695312 C 17.472656 7.410156 16 8.808594 14.195312 8.808594 C 14.164062 8.808594 14.128906 8.808594 14.097656 8.808594 C 14.101562 8.800781 14.101562 8.792969 14.105469 8.789062 C 14.160156 8.636719 14.207031 8.480469 14.246094 8.324219 C 14.246094 8.3125 14.25 8.300781 14.253906 8.289062 C 14.261719 8.246094 14.269531 8.203125 14.277344 8.160156 C 14.28125 8.140625 14.285156 8.121094 14.289062 8.101562 C 14.296875 8.0625 14.304688 8.023438 14.308594 7.984375 C 14.3125 7.957031 14.316406 7.929688 14.320312 7.902344 C 14.324219 7.867188 14.328125 7.835938 14.332031 7.800781 C 14.335938 7.765625 14.335938 7.730469 14.339844 7.695312 C 14.34375 7.667969 14.34375 7.636719 14.347656 7.609375 C 14.347656 7.550781 14.351562 7.492188 14.351562 7.429688 C 14.351562 7.425781 14.351562 7.421875 14.351562 7.417969 C 14.351562 7.414062 14.351562 7.414062 14.351562 7.410156 C 14.351562 7.347656 14.347656 7.289062 14.347656 7.226562 C 14.34375 7.207031 14.34375 7.191406 14.34375 7.171875 C 14.339844 7.121094 14.335938 7.070312 14.332031 7.019531 C 14.328125 7.007812 14.328125 6.996094 14.328125 6.984375 C 14.164062 5.492188 13.175781 4.21875 11.746094 3.628906 C 12.359375 2.972656 13.25 2.582031 14.195312 2.582031 Z M 8.867188 4.496094 C 8.875 4.492188 8.886719 4.488281 8.898438 4.484375 C 8.929688 4.472656 8.964844 4.464844 8.996094 4.453125 C 9.019531 4.445312 9.046875 4.4375 9.070312 4.429688 C 9.089844 4.425781 9.109375 4.421875 9.128906 4.417969 C 9.160156 4.40625 9.191406 4.398438 9.226562 4.390625 C 9.476562 4.335938 9.734375 4.304688 10 4.304688 C 10.265625 4.304688 10.523438 4.335938 10.773438 4.390625 C 10.804688 4.398438 10.839844 4.40625 10.871094 4.417969 C 10.890625 4.421875 10.910156 4.425781 10.929688 4.429688 C 10.953125 4.4375 10.980469 4.445312 11.003906 4.453125 C 11.035156 4.464844 11.070312 4.472656 11.101562 4.484375 C 11.113281 4.488281 11.125 4.492188 11.132812 4.496094 C 12.230469 4.878906 13.050781 5.808594 13.238281 6.933594 C 13.238281 6.941406 13.238281 6.949219 13.242188 6.957031 C 13.246094 6.996094 13.253906 7.035156 13.257812 7.074219 C 13.257812 7.089844 13.261719 7.101562 13.261719 7.117188 C 13.265625 7.152344 13.269531 7.1875 13.269531 7.222656 C 13.269531 7.238281 13.273438 7.253906 13.273438 7.269531 C 13.277344 7.3125 13.277344 7.359375 13.277344 7.40625 C 13.277344 7.410156 13.277344 7.414062 13.277344 7.417969 C 13.277344 7.417969 13.277344 7.421875 13.277344 7.421875 C 13.277344 7.464844 13.277344 7.511719 13.273438 7.554688 C 13.273438 7.570312 13.273438 7.582031 13.269531 7.597656 C 13.269531 7.636719 13.265625 7.679688 13.261719 7.722656 C 13.257812 7.738281 13.257812 7.753906 13.253906 7.769531 C 13.253906 7.796875 13.25 7.824219 13.246094 7.851562 C 13.242188 7.875 13.238281 7.894531 13.234375 7.914062 C 13.230469 7.945312 13.222656 7.980469 13.21875 8.011719 C 13.210938 8.039062 13.203125 8.066406 13.199219 8.09375 C 13.195312 8.109375 13.191406 8.128906 13.1875 8.144531 C 13.175781 8.183594 13.164062 8.226562 13.152344 8.265625 C 13.148438 8.285156 13.140625 8.300781 13.136719 8.316406 C 13.128906 8.339844 13.121094 8.363281 13.113281 8.386719 C 13.105469 8.40625 13.101562 8.421875 13.09375 8.441406 C 13.085938 8.460938 13.078125 8.484375 13.070312 8.503906 C 13.054688 8.539062 13.042969 8.574219 13.027344 8.609375 C 13.019531 8.625 13.011719 8.640625 13.003906 8.65625 C 12.992188 8.683594 12.980469 8.714844 12.964844 8.742188 C 12.964844 8.746094 12.960938 8.75 12.960938 8.753906 C 12.953125 8.761719 12.949219 8.773438 12.945312 8.78125 C 12.929688 8.8125 12.910156 8.84375 12.894531 8.875 C 12.886719 8.886719 12.882812 8.898438 12.875 8.910156 C 12.855469 8.945312 12.835938 8.976562 12.816406 9.007812 C 12.808594 9.019531 12.800781 9.03125 12.792969 9.042969 C 12.769531 9.078125 12.75 9.109375 12.726562 9.140625 C 12.710938 9.164062 12.699219 9.183594 12.683594 9.203125 C 12.671875 9.21875 12.65625 9.234375 12.644531 9.25 C 12.628906 9.273438 12.613281 9.292969 12.59375 9.316406 C 12.582031 9.328125 12.570312 9.34375 12.558594 9.355469 C 12.542969 9.378906 12.523438 9.398438 12.503906 9.421875 C 12.492188 9.433594 12.480469 9.445312 12.46875 9.460938 C 12.449219 9.480469 12.429688 9.5 12.410156 9.523438 C 12.398438 9.535156 12.386719 9.546875 12.375 9.558594 C 12.34375 9.589844 12.308594 9.621094 12.277344 9.652344 C 12.257812 9.671875 12.234375 9.691406 12.214844 9.707031 C 12.203125 9.71875 12.1875 9.734375 12.171875 9.746094 C 12.148438 9.765625 12.125 9.785156 12.101562 9.804688 C 12.089844 9.8125 12.078125 9.824219 12.0625 9.832031 C 12.035156 9.855469 12.003906 9.878906 11.976562 9.898438 C 11.96875 9.90625 11.960938 9.910156 11.949219 9.917969 C 11.40625 10.300781 10.730469 10.53125 10 10.53125 C 9.269531 10.53125 8.59375 10.300781 8.046875 9.917969 C 8.039062 9.910156 8.03125 9.90625 8.023438 9.898438 C 7.996094 9.878906 7.964844 9.855469 7.933594 9.832031 C 7.921875 9.824219 7.910156 9.8125 7.898438 9.804688 C 7.875 9.785156 7.851562 9.765625 7.828125 9.746094 C 7.8125 9.734375 7.796875 9.71875 7.785156 9.707031 C 7.765625 9.691406 7.742188 9.671875 7.722656 9.652344 C 7.691406 9.621094 7.65625 9.589844 7.625 9.558594 C 7.613281 9.546875 7.601562 9.535156 7.589844 9.523438 C 7.570312 9.5 7.550781 9.480469 7.53125 9.460938 C 7.519531 9.445312 7.507812 9.433594 7.496094 9.421875 C 7.476562 9.398438 7.457031 9.378906 7.441406 9.355469 C 7.429688 9.34375 7.417969 9.328125 7.40625 9.316406 C 7.386719 9.292969 7.371094 9.273438 7.355469 9.25 C 7.34375 9.234375 7.328125 9.21875 7.316406 9.203125 C 7.300781 9.183594 7.289062 9.164062 7.273438 9.140625 C 7.25 9.109375 7.230469 9.078125 7.207031 9.042969 C 7.199219 9.03125 7.191406 9.019531 7.183594 9.007812 C 7.164062 8.976562 7.144531 8.941406 7.125 8.910156 C 7.117188 8.898438 7.113281 8.886719 7.105469 8.875 C 7.089844 8.84375 7.070312 8.8125 7.054688 8.78125 C 7.050781 8.773438 7.042969 8.761719 7.039062 8.75 C 7.039062 8.746094 7.039062 8.746094 7.035156 8.746094 C 7.023438 8.714844 7.007812 8.683594 6.992188 8.652344 C 6.988281 8.640625 6.980469 8.625 6.972656 8.609375 C 6.957031 8.574219 6.941406 8.539062 6.929688 8.503906 C 6.921875 8.484375 6.914062 8.464844 6.90625 8.445312 C 6.898438 8.425781 6.890625 8.402344 6.886719 8.382812 C 6.878906 8.363281 6.871094 8.339844 6.863281 8.316406 C 6.851562 8.285156 6.84375 8.25 6.832031 8.21875 C 6.828125 8.195312 6.820312 8.171875 6.816406 8.148438 C 6.808594 8.128906 6.804688 8.109375 6.800781 8.089844 C 6.796875 8.066406 6.789062 8.046875 6.785156 8.023438 C 6.777344 7.984375 6.769531 7.949219 6.765625 7.914062 C 6.761719 7.894531 6.757812 7.875 6.753906 7.855469 C 6.75 7.824219 6.746094 7.796875 6.742188 7.765625 C 6.742188 7.753906 6.738281 7.738281 6.738281 7.722656 C 6.734375 7.679688 6.730469 7.636719 6.726562 7.59375 C 6.726562 7.582031 6.726562 7.570312 6.726562 7.558594 C 6.722656 7.511719 6.722656 7.464844 6.722656 7.417969 C 6.722656 7.367188 6.722656 7.316406 6.726562 7.265625 C 6.726562 7.253906 6.726562 7.238281 6.730469 7.226562 C 6.730469 7.1875 6.734375 7.152344 6.738281 7.113281 C 6.738281 7.101562 6.742188 7.089844 6.742188 7.074219 C 6.746094 7.035156 6.753906 6.996094 6.757812 6.957031 C 6.757812 6.949219 6.761719 6.941406 6.761719 6.933594 C 6.949219 5.808594 7.769531 4.878906 8.867188 4.496094 Z M 2.527344 5.695312 C 2.527344 3.976562 4 2.582031 5.804688 2.582031 C 6.75 2.582031 7.640625 2.972656 8.253906 3.628906 C 6.824219 4.21875 5.835938 5.496094 5.671875 6.984375 C 5.671875 6.996094 5.671875 7.003906 5.667969 7.015625 C 5.664062 7.070312 5.660156 7.121094 5.65625 7.175781 C 5.65625 7.191406 5.65625 7.207031 5.652344 7.222656 C 5.652344 7.289062 5.648438 7.351562 5.648438 7.417969 C 5.648438 7.480469 5.652344 7.546875 5.652344 7.613281 C 5.65625 7.636719 5.65625 7.664062 5.660156 7.691406 C 5.660156 7.726562 5.664062 7.765625 5.667969 7.800781 C 5.671875 7.835938 5.675781 7.867188 5.679688 7.902344 C 5.683594 7.929688 5.6875 7.957031 5.691406 7.988281 C 5.695312 8.023438 5.703125 8.0625 5.707031 8.097656 C 5.710938 8.121094 5.71875 8.140625 5.722656 8.164062 C 5.730469 8.207031 5.738281 8.246094 5.746094 8.289062 C 5.75 8.300781 5.753906 8.316406 5.757812 8.328125 C 5.792969 8.484375 5.839844 8.632812 5.890625 8.777344 C 5.894531 8.789062 5.898438 8.796875 5.902344 8.808594 C 5.871094 8.808594 5.835938 8.808594 5.804688 8.808594 C 4 8.808594 2.527344 7.410156 2.527344 5.695312 Z M 5.09375 12.199219 C 5.082031 12.214844 5.070312 12.234375 5.058594 12.253906 C 5.035156 12.289062 5.011719 12.328125 4.988281 12.367188 C 4.976562 12.386719 4.960938 12.410156 4.949219 12.429688 C 4.929688 12.464844 4.90625 12.5 4.886719 12.535156 C 4.875 12.558594 4.863281 12.582031 4.847656 12.605469 C 4.828125 12.640625 4.808594 12.675781 4.792969 12.710938 C 4.78125 12.734375 4.769531 12.757812 4.757812 12.777344 C 4.738281 12.816406 4.71875 12.855469 4.703125 12.894531 C 4.691406 12.914062 4.679688 12.933594 4.671875 12.957031 C 4.652344 13 4.632812 13.046875 4.613281 13.09375 C 4.605469 13.105469 4.601562 13.121094 4.59375 13.132812 C 4.570312 13.195312 4.546875 13.253906 4.523438 13.316406 C 4.519531 13.328125 4.511719 13.34375 4.507812 13.355469 C 4.492188 13.402344 4.472656 13.449219 4.457031 13.496094 C 4.453125 13.519531 4.445312 13.542969 4.4375 13.5625 C 4.425781 13.601562 4.414062 13.644531 4.402344 13.683594 C 4.394531 13.707031 4.386719 13.730469 4.382812 13.753906 C 4.371094 13.792969 4.359375 13.832031 4.351562 13.871094 C 4.34375 13.894531 4.339844 13.921875 4.332031 13.945312 C 4.324219 13.984375 4.316406 14.023438 4.308594 14.0625 C 4.300781 14.089844 4.296875 14.113281 4.292969 14.136719 C 4.285156 14.179688 4.277344 14.222656 4.269531 14.265625 C 4.265625 14.285156 4.261719 14.304688 4.257812 14.328125 C 4.25 14.390625 4.238281 14.453125 4.230469 14.519531 C 4.222656 14.578125 4.21875 14.636719 4.214844 14.695312 L 1.074219 14.695312 L 1.074219 13.417969 C 1.074219 11.671875 2.132812 10.101562 3.789062 9.355469 C 4.390625 9.65625 5.078125 9.828125 5.804688 9.828125 C 6.015625 9.828125 6.226562 9.8125 6.4375 9.785156 C 6.46875 9.828125 6.503906 9.871094 6.535156 9.914062 C 6.546875 9.929688 6.558594 9.945312 6.570312 9.957031 C 6.605469 10 6.640625 10.039062 6.675781 10.082031 C 6.691406 10.097656 6.707031 10.113281 6.71875 10.128906 C 6.753906 10.164062 6.789062 10.199219 6.820312 10.234375 C 6.839844 10.253906 6.859375 10.273438 6.878906 10.292969 C 6.910156 10.320312 6.941406 10.351562 6.972656 10.382812 C 6.984375 10.394531 6.996094 10.40625 7.007812 10.417969 C 6.960938 10.445312 6.917969 10.472656 6.871094 10.5 C 6.863281 10.503906 6.855469 10.507812 6.847656 10.511719 C 6.804688 10.542969 6.757812 10.570312 6.710938 10.601562 C 6.695312 10.609375 6.683594 10.621094 6.667969 10.628906 C 6.625 10.65625 6.585938 10.683594 6.546875 10.710938 C 6.535156 10.722656 6.523438 10.730469 6.511719 10.738281 C 6.460938 10.773438 6.410156 10.8125 6.363281 10.847656 C 6.351562 10.855469 6.339844 10.863281 6.332031 10.871094 C 6.292969 10.902344 6.253906 10.933594 6.214844 10.964844 C 6.199219 10.976562 6.1875 10.988281 6.171875 11 C 6.132812 11.03125 6.097656 11.066406 6.058594 11.097656 C 6.050781 11.105469 6.039062 11.113281 6.03125 11.125 C 5.984375 11.164062 5.9375 11.207031 5.894531 11.246094 C 5.882812 11.257812 5.871094 11.269531 5.859375 11.28125 C 5.828125 11.3125 5.792969 11.347656 5.761719 11.378906 C 5.746094 11.394531 5.734375 11.40625 5.722656 11.421875 C 5.683594 11.460938 5.648438 11.5 5.613281 11.539062 C 5.605469 11.542969 5.601562 11.550781 5.59375 11.554688 C 5.554688 11.601562 5.511719 11.648438 5.472656 11.695312 C 5.460938 11.707031 5.453125 11.722656 5.441406 11.734375 C 5.410156 11.769531 5.382812 11.808594 5.351562 11.84375 C 5.34375 11.859375 5.332031 11.871094 5.320312 11.886719 C 5.28125 11.933594 5.246094 11.984375 5.207031 12.035156 C 5.167969 12.089844 5.132812 12.144531 5.09375 12.199219 Z M 5.269531 16.417969 L 5.269531 15.140625 C 5.269531 15.082031 5.269531 15.027344 5.273438 14.96875 C 5.273438 14.953125 5.273438 14.933594 5.273438 14.914062 C 5.277344 14.878906 5.277344 14.839844 5.28125 14.800781 C 5.285156 14.78125 5.285156 14.757812 5.289062 14.734375 C 5.292969 14.703125 5.292969 14.667969 5.296875 14.636719 C 5.300781 14.613281 5.304688 14.589844 5.308594 14.5625 C 5.3125 14.53125 5.316406 14.5 5.320312 14.472656 C 5.324219 14.445312 5.328125 14.421875 5.332031 14.398438 C 5.339844 14.367188 5.34375 14.335938 5.351562 14.308594 C 5.355469 14.28125 5.359375 14.257812 5.367188 14.230469 C 5.371094 14.203125 5.378906 14.175781 5.386719 14.144531 C 5.390625 14.121094 5.398438 14.09375 5.40625 14.070312 C 5.410156 14.042969 5.417969 14.015625 5.425781 13.984375 C 5.433594 13.960938 5.441406 13.9375 5.449219 13.910156 C 5.457031 13.882812 5.464844 13.855469 5.472656 13.828125 C 5.480469 13.804688 5.492188 13.777344 5.5 13.753906 C 5.507812 13.726562 5.515625 13.699219 5.527344 13.671875 C 5.535156 13.648438 5.546875 13.625 5.554688 13.597656 C 5.566406 13.570312 5.574219 13.546875 5.585938 13.519531 C 5.597656 13.496094 5.605469 13.46875 5.617188 13.445312 C 5.628906 13.421875 5.640625 13.394531 5.652344 13.367188 C 5.660156 13.34375 5.671875 13.320312 5.683594 13.296875 C 5.695312 13.269531 5.707031 13.246094 5.722656 13.222656 C 5.734375 13.195312 5.746094 13.171875 5.757812 13.148438 C 5.769531 13.125 5.785156 13.101562 5.796875 13.074219 C 5.808594 13.050781 5.824219 13.027344 5.835938 13.003906 C 5.851562 12.980469 5.863281 12.957031 5.878906 12.933594 C 5.890625 12.910156 5.90625 12.886719 5.921875 12.863281 C 5.933594 12.839844 5.949219 12.816406 5.964844 12.792969 C 5.980469 12.769531 5.996094 12.746094 6.011719 12.726562 C 6.027344 12.703125 6.039062 12.679688 6.054688 12.65625 C 6.074219 12.632812 6.089844 12.613281 6.105469 12.589844 C 6.121094 12.566406 6.136719 12.546875 6.152344 12.523438 C 6.171875 12.5 6.1875 12.480469 6.203125 12.457031 C 6.222656 12.4375 6.238281 12.414062 6.253906 12.394531 C 6.273438 12.371094 6.292969 12.351562 6.308594 12.328125 C 6.328125 12.308594 6.34375 12.289062 6.363281 12.265625 C 6.382812 12.246094 6.398438 12.226562 6.417969 12.203125 C 6.4375 12.183594 6.457031 12.164062 6.476562 12.144531 C 6.492188 12.125 6.511719 12.105469 6.53125 12.082031 C 6.550781 12.0625 6.570312 12.042969 6.589844 12.023438 C 6.613281 12.003906 6.632812 11.984375 6.652344 11.964844 C 6.671875 11.949219 6.691406 11.929688 6.714844 11.910156 C 6.734375 11.890625 6.753906 11.871094 6.777344 11.851562 C 6.796875 11.835938 6.816406 11.816406 6.839844 11.796875 C 6.859375 11.78125 6.882812 11.761719 6.902344 11.746094 C 6.925781 11.726562 6.949219 11.707031 6.96875 11.691406 C 6.992188 11.671875 7.015625 11.65625 7.035156 11.640625 C 7.058594 11.621094 7.082031 11.605469 7.105469 11.589844 C 7.128906 11.570312 7.152344 11.554688 7.171875 11.539062 C 7.195312 11.523438 7.21875 11.503906 7.246094 11.488281 C 7.269531 11.472656 7.292969 11.457031 7.316406 11.441406 C 7.339844 11.425781 7.363281 11.410156 7.386719 11.394531 C 7.410156 11.378906 7.4375 11.367188 7.460938 11.351562 C 7.484375 11.335938 7.511719 11.320312 7.535156 11.304688 C 7.5625 11.292969 7.585938 11.277344 7.609375 11.265625 C 7.636719 11.25 7.660156 11.234375 7.6875 11.222656 C 7.714844 11.207031 7.738281 11.195312 7.765625 11.183594 C 7.789062 11.167969 7.816406 11.15625 7.84375 11.140625 C 7.871094 11.128906 7.894531 11.117188 7.921875 11.105469 C 7.941406 11.097656 7.960938 11.085938 7.984375 11.078125 C 8.585938 11.378906 9.273438 11.550781 10 11.550781 C 10.726562 11.550781 11.414062 11.378906 12.015625 11.078125 C 12.039062 11.085938 12.058594 11.097656 12.078125 11.105469 C 12.105469 11.117188 12.128906 11.128906 12.15625 11.144531 C 12.183594 11.15625 12.210938 11.167969 12.234375 11.183594 C 12.261719 11.195312 12.285156 11.207031 12.3125 11.222656 C 12.339844 11.234375 12.363281 11.25 12.390625 11.265625 C 12.414062 11.277344 12.4375 11.292969 12.464844 11.308594 C 12.488281 11.320312 12.515625 11.335938 12.539062 11.351562 C 12.5625 11.367188 12.585938 11.378906 12.613281 11.394531 C 12.636719 11.410156 12.660156 11.425781 12.683594 11.441406 C 12.707031 11.457031 12.730469 11.472656 12.753906 11.488281 C 12.777344 11.503906 12.800781 11.523438 12.824219 11.539062 C 12.847656 11.554688 12.871094 11.570312 12.894531 11.589844 C 12.917969 11.605469 12.941406 11.621094 12.964844 11.640625 C 12.984375 11.65625 13.007812 11.671875 13.03125 11.691406 C 13.050781 11.707031 13.074219 11.726562 13.09375 11.742188 C 13.117188 11.761719 13.140625 11.78125 13.160156 11.796875 C 13.183594 11.816406 13.203125 11.835938 13.222656 11.851562 C 13.246094 11.871094 13.265625 11.890625 13.285156 11.910156 C 13.308594 11.929688 13.328125 11.949219 13.347656 11.964844 C 13.367188 11.984375 13.386719 12.003906 13.410156 12.023438 C 13.429688 12.042969 13.449219 12.0625 13.464844 12.082031 C 13.488281 12.105469 13.507812 12.125 13.523438 12.144531 C 13.542969 12.164062 13.5625 12.183594 13.582031 12.203125 C 13.601562 12.226562 13.617188 12.246094 13.636719 12.265625 C 13.65625 12.289062 13.671875 12.308594 13.691406 12.328125 C 13.707031 12.351562 13.726562 12.371094 13.746094 12.394531 C 13.761719 12.414062 13.777344 12.4375 13.796875 12.457031 C 13.8125 12.480469 13.828125 12.5 13.847656 12.523438 C 13.863281 12.546875 13.878906 12.566406 13.894531 12.589844 C 13.910156 12.613281 13.925781 12.632812 13.945312 12.65625 C 13.960938 12.679688 13.972656 12.703125 13.988281 12.722656 C 14.003906 12.746094 14.019531 12.769531 14.035156 12.792969 C 14.050781 12.816406 14.0625 12.839844 14.078125 12.863281 C 14.09375 12.886719 14.109375 12.910156 14.121094 12.933594 C 14.136719 12.957031 14.148438 12.980469 14.164062 13.003906 C 14.175781 13.027344 14.191406 13.050781 14.203125 13.074219 C 14.214844 13.101562 14.230469 13.125 14.242188 13.148438 C 14.253906 13.171875 14.265625 13.195312 14.277344 13.222656 C 14.292969 13.246094 14.304688 13.269531 14.316406 13.296875 C 14.328125 13.320312 14.339844 13.34375 14.347656 13.367188 C 14.359375 13.394531 14.371094 13.417969 14.382812 13.445312 C 14.394531 13.46875 14.402344 13.496094 14.414062 13.519531 C 14.425781 13.546875 14.433594 13.570312 14.445312 13.597656 C 14.453125 13.621094 14.464844 13.648438 14.472656 13.671875 C 14.484375 13.699219 14.492188 13.726562 14.5 13.753906 C 14.507812 13.777344 14.519531 13.804688 14.527344 13.828125 C 14.535156 13.855469 14.542969 13.882812 14.550781 13.910156 C 14.558594 13.9375 14.566406 13.960938 14.574219 13.984375 C 14.582031 14.015625 14.589844 14.042969 14.59375 14.070312 C 14.601562 14.09375 14.609375 14.121094 14.613281 14.144531 C 14.621094 14.175781 14.628906 14.203125 14.632812 14.230469 C 14.640625 14.257812 14.644531 14.28125 14.648438 14.308594 C 14.65625 14.335938 14.660156 14.367188 14.664062 14.394531 C 14.671875 14.421875 14.675781 14.445312 14.679688 14.472656 C 14.683594 14.5 14.6875 14.53125 14.691406 14.5625 C 14.695312 14.585938 14.699219 14.613281 14.703125 14.636719 C 14.707031 14.667969 14.707031 14.703125 14.710938 14.734375 C 14.714844 14.757812 14.714844 14.78125 14.71875 14.800781 C 14.722656 14.839844 14.722656 14.878906 14.726562 14.914062 C 14.726562 14.933594 14.726562 14.953125 14.726562 14.96875 C 14.730469 15.027344 14.730469 15.082031 14.730469 15.140625 L 14.730469 16.417969 Z M 15.785156 14.695312 C 15.777344 14.574219 15.761719 14.449219 15.742188 14.328125 C 15.738281 14.308594 15.734375 14.289062 15.730469 14.269531 C 15.722656 14.222656 15.714844 14.179688 15.707031 14.136719 C 15.703125 14.113281 15.699219 14.089844 15.695312 14.066406 C 15.683594 14.023438 15.675781 13.984375 15.667969 13.945312 C 15.660156 13.921875 15.65625 13.898438 15.648438 13.871094 C 15.640625 13.832031 15.628906 13.792969 15.617188 13.753906 C 15.613281 13.730469 15.605469 13.707031 15.597656 13.683594 C 15.585938 13.644531 15.574219 13.601562 15.5625 13.5625 C 15.554688 13.539062 15.546875 13.519531 15.542969 13.5 C 15.523438 13.449219 15.507812 13.402344 15.492188 13.355469 C 15.488281 13.339844 15.480469 13.328125 15.476562 13.316406 C 15.453125 13.253906 15.429688 13.195312 15.40625 13.132812 C 15.402344 13.121094 15.394531 13.109375 15.390625 13.09375 C 15.371094 13.046875 15.347656 13 15.328125 12.953125 C 15.320312 12.933594 15.308594 12.914062 15.296875 12.894531 C 15.28125 12.855469 15.261719 12.816406 15.242188 12.777344 C 15.230469 12.757812 15.21875 12.734375 15.207031 12.710938 C 15.191406 12.675781 15.171875 12.640625 15.152344 12.605469 C 15.136719 12.582031 15.125 12.558594 15.113281 12.535156 C 15.09375 12.5 15.070312 12.464844 15.050781 12.429688 C 15.039062 12.410156 15.023438 12.386719 15.011719 12.367188 C 14.988281 12.328125 14.964844 12.289062 14.9375 12.25 C 14.929688 12.234375 14.917969 12.214844 14.90625 12.199219 C 14.867188 12.144531 14.832031 12.089844 14.792969 12.035156 C 14.753906 11.984375 14.71875 11.933594 14.679688 11.886719 C 14.667969 11.871094 14.65625 11.859375 14.648438 11.84375 C 14.617188 11.808594 14.589844 11.769531 14.558594 11.734375 C 14.546875 11.722656 14.535156 11.707031 14.527344 11.695312 C 14.488281 11.648438 14.445312 11.601562 14.40625 11.554688 C 14.398438 11.550781 14.394531 11.542969 14.390625 11.539062 C 14.351562 11.5 14.316406 11.460938 14.277344 11.421875 C 14.265625 11.40625 14.253906 11.394531 14.238281 11.378906 C 14.207031 11.347656 14.171875 11.3125 14.136719 11.28125 C 14.128906 11.269531 14.117188 11.257812 14.105469 11.25 C 14.058594 11.207031 14.015625 11.164062 13.96875 11.125 C 13.960938 11.113281 13.949219 11.105469 13.941406 11.097656 C 13.902344 11.066406 13.867188 11.03125 13.828125 11 C 13.8125 10.988281 13.800781 10.976562 13.785156 10.964844 C 13.746094 10.933594 13.707031 10.902344 13.667969 10.871094 C 13.660156 10.863281 13.648438 10.855469 13.636719 10.847656 C 13.589844 10.8125 13.539062 10.773438 13.488281 10.738281 C 13.476562 10.730469 13.464844 10.722656 13.453125 10.710938 C 13.414062 10.683594 13.375 10.65625 13.332031 10.628906 C 13.316406 10.621094 13.300781 10.609375 13.285156 10.601562 C 13.242188 10.570312 13.199219 10.542969 13.152344 10.515625 C 13.144531 10.507812 13.136719 10.503906 13.128906 10.5 C 13.082031 10.472656 13.035156 10.445312 12.988281 10.417969 C 13.003906 10.40625 13.011719 10.394531 13.027344 10.382812 C 13.058594 10.351562 13.089844 10.320312 13.125 10.289062 C 13.140625 10.273438 13.160156 10.253906 13.175781 10.238281 C 13.210938 10.203125 13.246094 10.164062 13.28125 10.128906 C 13.292969 10.113281 13.308594 10.097656 13.324219 10.082031 C 13.359375 10.039062 13.394531 10 13.429688 9.957031 C 13.441406 9.945312 13.453125 9.929688 13.460938 9.917969 C 13.496094 9.875 13.53125 9.828125 13.5625 9.785156 C 13.773438 9.8125 13.984375 9.828125 14.195312 9.828125 C 14.921875 9.828125 15.609375 9.65625 16.210938 9.355469 C 17.867188 10.101562 18.925781 11.671875 18.925781 13.417969 L 18.925781 14.695312 Z M 15.785156 14.695312 "/>
</g>
</svg>
